<svg xmlns="http://www.w3.org/2000/svg" viewBox="0 0 24 24" fill="currentColor">
  <path d="M12 2C6.48 2 2 6.48 2 12s4.48 10 10 10 10-4.48 10-10S17.52 2 12 2zm-2 15l-5-5 1.41-1.41L10 14.17l7.59-7.59L19 8l-9 9z"/>
<svg xmlns="http://www.w3.org/2000/svg" viewBox="0 0 24 24" fill="currentColor">
<svg xmlns="http://www.w3.org/2000/svg" viewBox="0 0 24 24" fill="currentColor">
  <path d="M12 2C6.48 2 2 6.48 2 12s4.48 10 10 10 10-4.48 10-10S17.52 2 12 2zm-2 15l-5-5 1.41-1.41L10 14.17l7.59-7.59L19 8l-9 9z"/>
  <path d="M12 2C6.48 2 2 6.48 2 12s4.48 10 10 10 10-4.48 10-10S17.52 2 12 2zm-2 15l-5-5 1.41-1.41L10 14.17l7.59-7.59L19 8l-9 9z"/>
</svg>
<svg xmlns="http://www.w3.org/2000/svg" viewBox="0 0 24 24" fill="currentColor">
  <path d="M12 2C6.48 2 2 6.48 2 12s4.48 10 10 10 10-4.48 10-10S17.52 2 12 2zm-2 15l-5-5 1.41-1.41L10 14.17l7.59-7.59L19 8l-9 9z"/>
</svg>
<?xml version="1.0" encoding="UTF-8"?>
<svg xmlns="http://www.w3.org/2000/svg"
     fill="none"
     viewBox="0 0 24 24"
     stroke="currentColor"
     stroke-width="1.5"
     aria-hidden="true"
     role="img"
     aria-label="Notification System Logo">
  <style>
    .notify-bell {
        animation: bell-ring 4s ease-in-out infinite;
        transform-origin: 12px 4px;
    }
    .notify-waves {
        animation: notification-wave 2s ease-in-out infinite;
    }
    .notify-indicator {
        animation: pulse-alert 1.5s ease-in-out infinite;
        transform-origin: 18px 6px;
    }
    .notify-sound {
        animation: sound-ripple 3s ease-in-out infinite;
    }

    @keyframes bell-ring {
        0%, 90%, 100% { transform: rotate(0deg); }
        5% { transform: rotate(5deg); }
        10% { transform: rotate(-5deg); }
        15% { transform: rotate(3deg); }
        20% { transform: rotate(-3deg); }
        25% { transform: rotate(0deg); }
    }

    @keyframes notification-wave {
        0% { opacity: 0.3; transform: scale(0.8); }
        50% { opacity: 0.7; transform: scale(1.1); }
        100% { opacity: 0.3; transform: scale(0.8); }
    }

    @keyframes pulse-alert {
        0%, 100% { opacity: 0.8; transform: scale(1); }
        50% { opacity: 1; transform: scale(1.2); }
    }

    @keyframes sound-ripple {
        0% { opacity: 0.2; transform: scale(0.9); }
        50% { opacity: 0.6; transform: scale(1.3); }
        100% { opacity: 0.2; transform: scale(0.9); }
    }

    svg:hover .notify-bell { animation-duration: 1s; }
    svg:hover .notify-waves { animation-duration: 1s; }
    svg:hover .notify-indicator { animation-duration: 0.8s; }

    @media (prefers-color-scheme: dark) {
        .notify-bell { opacity: 0.95; }
        .notify-waves { opacity: 0.8; }
        .notify-indicator { opacity: 0.9; }
        .notify-sound { opacity: 0.7; }
    }

    @media (prefers-reduced-motion: reduce) {
        .notify-bell,
        .notify-waves,
        .notify-indicator,
        .notify-sound {
            animation: none;
        }
    }
    }
  </style>
  </style>


  <!-- Bell body -->
  <!-- Bell body -->
  <path class="notify-bell"
  <path class="notify-bell"
        stroke-linecap="round"
        stroke-linecap="round"
        stroke-linejoin="round"
        stroke-linejoin="round"
        d="M15 17h5l-1.405-1.405A2.032 2.032 0 0118 14.158V11a6.002 6.002 0 00-4-5.659V5a2 2 0 10-4 0v.341C7.67 6.165 6 8.388 6 11v3.159c0 .538-.214 1.055-.595 1.436L4 17h5m6 0v1a3 3 0 11-6 0v-1m6 0H9" />
        d="M15 17h5l-1.405-1.405A2.032 2.032 0 0118 14.158V11a6.002 6.002 0 00-4-5.659V5a2 2 0 10-4 0v.341C7.67 6.165 6 8.388 6 11v3.159c0 .538-.214 1.055-.595 1.436L4 17h5m6 0v1a3 3 0 11-6 0v-1m6 0H9" />


  <!-- Notification indicator -->
  <!-- Notification indicator -->
  <circle class="notify-indicator" cx="18" cy="6" r="3" fill="currentColor" opacity="0.8" />
  <circle class="notify-indicator" cx="18" cy="6" r="3" fill="currentColor" opacity="0.8" />


  <!-- Sound waves -->
  <!-- Sound waves -->
  <g class="notify-sound">
  <g class="notify-sound">
    <path stroke-linecap="round" stroke-linejoin="round"
    <path stroke-linecap="round" stroke-linejoin="round"
          d="M19 11c0-1.5-1-3-2.5-3" stroke-width="1" opacity="0.5" />
          d="M19 11c0-1.5-1-3-2.5-3" stroke-width="1" opacity="0.5" />
    <path stroke-linecap="round" stroke-linejoin="round"
    <path stroke-linecap="round" stroke-linejoin="round"
          d="M21 9c0-2.5-2-5-4.5-5" stroke-width="1" opacity="0.3" />
          d="M21 9c0-2.5-2-5-4.5-5" stroke-width="1" opacity="0.3" />
  </g>
  </g>

  <!-- Notification waves -->
  <g class="notify-waves">
    <circle cx="12" cy="12" r="8" stroke-width="0.5" opacity="0.3" stroke-dasharray="3 6" />
    <circle cx="12" cy="12" r="12" stroke-width="0.5" opacity="0.2" stroke-dasharray="4 8" />
  </g>
  <circle cx="18.5" cy="5.5" r="2.5" fill="currentColor"/>
  <circle cx="18.5" cy="5.5" r="2.5" fill="currentColor"/>
<?xml version="1.0" encoding="UTF-8"?>
<svg xmlns="http://www.w3.org/2000/svg" 
     fill="none" 
     viewBox="0 0 24 24" 
     stroke="currentColor"
     stroke-width="1.5"
     aria-hidden="true" 
     role="img"
     aria-label="Notification System Logo">
    <style>
        .notify-bell { 
            animation: bell-ring 4s ease-in-out infinite;
            transform-origin: 12px 4px;
        }
        .notify-waves { 
            animation: notification-wave 2s ease-in-out infinite;
        }
        .notify-indicator { 
            animation: pulse-alert 1.5s ease-in-out infinite;
            transform-origin: 18px 6px;
        }
        .notify-sound { 
            animation: sound-ripple 3s ease-in-out infinite;
        }
        
        @keyframes bell-ring {
            0%, 90%, 100% { transform: rotate(0deg); }
            5% { transform: rotate(5deg); }
            10% { transform: rotate(-5deg); }
            15% { transform: rotate(3deg); }
            20% { transform: rotate(-3deg); }
            25% { transform: rotate(0deg); }
        }
        
        @keyframes notification-wave {
            0% { opacity: 0.3; transform: scale(0.8); }
            50% { opacity: 0.7; transform: scale(1.1); }
            100% { opacity: 0.3; transform: scale(0.8); }
        }
        
        @keyframes pulse-alert {
            0%, 100% { opacity: 0.8; transform: scale(1); }
            50% { opacity: 1; transform: scale(1.2); }
        }
        
        @keyframes sound-ripple {
            0% { opacity: 0.2; transform: scale(0.9); }
            50% { opacity: 0.6; transform: scale(1.3); }
            100% { opacity: 0.2; transform: scale(0.9); }
        }
        
        svg:hover .notify-bell { 
            animation-duration: 1s; 
        }
        svg:hover .notify-waves { 
            animation-duration: 1s; 
        }
        svg:hover .notify-indicator { 
            animation-duration: 0.8s; 
        }
        
        @media (prefers-color-scheme: dark) {
            .notify-bell { opacity: 0.95; }
            .notify-waves { opacity: 0.8; }
            .notify-indicator { opacity: 0.9; }
            .notify-sound { opacity: 0.7; }
        }
        
        @media (prefers-reduced-motion: reduce) {
            .notify-bell, .notify-waves, .notify-indicator, .notify-sound { animation: none; }
        }
    </style>
    
    <!-- Bell body -->
    <path class="notify-bell" 
          stroke-linecap="round" 
          stroke-linejoin="round" 
          d="M15 17h5l-1.405-1.405A2.032 2.032 0 0118 14.158V11a6.002 6.002 0 00-4-5.659V5a2 2 0 10-4 0v.341C7.67 6.165 6 8.388 6 11v3.159c0 .538-.214 1.055-.595 1.436L4 17h5m6 0v1a3 3 0 11-6 0v-1m6 0H9" />
    
    <!-- Notification indicator -->
    <circle class="notify-indicator" cx="18" cy="6" r="3" fill="currentColor" opacity="0.8" />
    
    <!-- Sound waves -->
    <g class="notify-sound">
        <path stroke-linecap="round" stroke-linejoin="round" 
              d="M19 11c0-1.5-1-3-2.5-3" stroke-width="1" opacity="0.5" />
        <path stroke-linecap="round" stroke-linejoin="round" 
              d="M21 9c0-2.5-2-5-4.5-5" stroke-width="1" opacity="0.3" />
    </g>
    
    <!-- Notification waves -->
    <g class="notify-waves">
        <circle cx="12" cy="12" r="8" stroke-width="0.5" opacity="0.3" stroke-dasharray="3 6" />
        <circle cx="12" cy="12" r="12" stroke-width="0.5" opacity="0.2" stroke-dasharray="4 8" />
    </g>
<svg xmlns="http://www.w3.org/2000/svg" viewBox="0 0 24 24" fill="currentColor">
  <path d="M12 2C6.48 2 2 6.48 2 12s4.48 10 10 10 10-4.48 10-10S17.52 2 12 2zm-2 15l-5-5 1.41-1.41L10 14.17l7.59-7.59L19 8l-9 9z"/>
</svg>
<svg xmlns="http://www.w3.org/2000/svg" viewBox="0 0 24 24" fill="currentColor">
  <path d="M12 2C6.48 2 2 6.48 2 12s4.48 10 10 10 10-4.48 10-10S17.52 2 12 2zm-2 15l-5-5 1.41-1.41L10 14.17l7.59-7.59L19 8l-9 9z"/>
<svg xmlns="http://www.w3.org/2000/svg" viewBox="0 0 24 24" fill="currentColor">
  <path d="M12 2C6.48 2 2 6.48 2 12s4.48 10 10 10 10-4.48 10-10S17.52 2 12 2zm-2 15l-5-5 1.41-1.41L10 14.17l7.59-7.59L19 8l-9 9z"/>
<?xml version="1.0" encoding="UTF-8"?>
<svg xmlns="http://www.w3.org/2000/svg" 
     fill="none" 
     viewBox="0 0 24 24" 
     stroke="currentColor"
     stroke-width="1.5"
     aria-hidden="true" 
     role="img"
     aria-label="Notification System Logo">
    <style>
        .notify-bell { 
            animation: bell-ring 4s ease-in-out infinite;
            transform-origin: 12px 4px;
        }
        .notify-waves { 
            animation: notification-wave 2s ease-in-out infinite;
        }
        .notify-indicator { 
            animation: pulse-alert 1.5s ease-in-out infinite;
            transform-origin: 18px 6px;
        }
        .notify-sound { 
            animation: sound-ripple 3s ease-in-out infinite;
        }
        
        @keyframes bell-ring {
            0%, 90%, 100% { transform: rotate(0deg); }
            5% { transform: rotate(5deg); }
            10% { transform: rotate(-5deg); }
            15% { transform: rotate(3deg); }
            20% { transform: rotate(-3deg); }
            25% { transform: rotate(0deg); }
        }
        
        @keyframes notification-wave {
            0% { opacity: 0.3; transform: scale(0.8); }
            50% { opacity: 0.7; transform: scale(1.1); }
            100% { opacity: 0.3; transform: scale(0.8); }
        }
        
        @keyframes pulse-alert {
            0%, 100% { opacity: 0.8; transform: scale(1); }
            50% { opacity: 1; transform: scale(1.2); }
        }
        
        @keyframes sound-ripple {
            0% { opacity: 0.2; transform: scale(0.9); }
            50% { opacity: 0.6; transform: scale(1.3); }
            100% { opacity: 0.2; transform: scale(0.9); }
        }
        
        svg:hover .notify-bell { 
            animation-duration: 1s; 
        }
        svg:hover .notify-waves { 
            animation-duration: 1s; 
        }
        svg:hover .notify-indicator { 
            animation-duration: 0.8s; 
        }
        
        @media (prefers-color-scheme: dark) {
            .notify-bell { opacity: 0.95; }
            .notify-waves { opacity: 0.8; }
            .notify-indicator { opacity: 0.9; }
            .notify-sound { opacity: 0.7; }
        }
        
        @media (prefers-reduced-motion: reduce) {
            .notify-bell, .notify-waves, .notify-indicator, .notify-sound { animation: none; }
        }
    </style>
    
    <!-- Bell body -->
    <path class="notify-bell" 
          stroke-linecap="round" 
          stroke-linejoin="round" 
          d="M15 17h5l-1.405-1.405A2.032 2.032 0 0118 14.158V11a6.002 6.002 0 00-4-5.659V5a2 2 0 10-4 0v.341C7.67 6.165 6 8.388 6 11v3.159c0 .538-.214 1.055-.595 1.436L4 17h5m6 0v1a3 3 0 11-6 0v-1m6 0H9" />
    
    <!-- Notification indicator -->
    <circle class="notify-indicator" cx="18" cy="6" r="3" fill="currentColor" opacity="0.8" />
    
    <!-- Sound waves -->
    <g class="notify-sound">
        <path stroke-linecap="round" stroke-linejoin="round" 
              d="M19 11c0-1.5-1-3-2.5-3" stroke-width="1" opacity="0.5" />
        <path stroke-linecap="round" stroke-linejoin="round" 
              d="M21 9c0-2.5-2-5-4.5-5" stroke-width="1" opacity="0.3" />
    </g>
    
    <!-- Notification waves -->
    <g class="notify-waves">
        <circle cx="12" cy="12" r="8" stroke-width="0.5" opacity="0.3" stroke-dasharray="3 6" />
        <circle cx="12" cy="12" r="12" stroke-width="0.5" opacity="0.2" stroke-dasharray="4 8" />
    </g>
<svg xmlns="http://www.w3.org/2000/svg" viewBox="0 0 24 24" fill="currentColor">
  <path d="M12 2C6.48 2 2 6.48 2 12s4.48 10 10 10 10-4.48 10-10S17.52 2 12 2zm-2 15l-5-5 1.41-1.41L10 14.17l7.59-7.59L19 8l-9 9z"/>
<?xml version="1.0" encoding="UTF-8"?>
<?xml version="1.0" encoding="UTF-8"?>
<svg xmlns="http://www.w3.org/2000/svg" 
<svg xmlns="http://www.w3.org/2000/svg" 
     fill="none" 
     fill="none" 
     viewBox="0 0 24 24" 
     viewBox="0 0 24 24" 
     stroke="currentColor"
     stroke="currentColor"
     stroke-width="1.5"
     stroke-width="1.5"
     aria-hidden="true" 
     aria-hidden="true" 
     role="img"
     role="img"
     aria-label="Notification System Logo">
     aria-label="Notification System Logo">
    <style>
    <style>
        .notify-bell { 
        .notify-bell { 
            animation: bell-ring 4s ease-in-out infinite;
            animation: bell-ring 4s ease-in-out infinite;
            transform-origin: 12px 4px;
            transform-origin: 12px 4px;
        }
        }
        .notify-waves { 
        .notify-waves { 
            animation: notification-wave 2s ease-in-out infinite;
            animation: notification-wave 2s ease-in-out infinite;
        }
        }
        .notify-indicator { 
        .notify-indicator { 
            animation: pulse-alert 1.5s ease-in-out infinite;
            animation: pulse-alert 1.5s ease-in-out infinite;
            transform-origin: 18px 6px;
            transform-origin: 18px 6px;
        }
        }
        .notify-sound { 
        .notify-sound { 
            animation: sound-ripple 3s ease-in-out infinite;
            animation: sound-ripple 3s ease-in-out infinite;
        }
        }
        
        
        @keyframes bell-ring {
        @keyframes bell-ring {
            0%, 90%, 100% { transform: rotate(0deg); }
            0%, 90%, 100% { transform: rotate(0deg); }
            5% { transform: rotate(5deg); }
            5% { transform: rotate(5deg); }
            10% { transform: rotate(-5deg); }
            10% { transform: rotate(-5deg); }
            15% { transform: rotate(3deg); }
            15% { transform: rotate(3deg); }
            20% { transform: rotate(-3deg); }
            20% { transform: rotate(-3deg); }
            25% { transform: rotate(0deg); }
            25% { transform: rotate(0deg); }
        }
        }
        
        
        @keyframes notification-wave {
        @keyframes notification-wave {
            0% { opacity: 0.3; transform: scale(0.8); }
            0% { opacity: 0.3; transform: scale(0.8); }
            50% { opacity: 0.7; transform: scale(1.1); }
            50% { opacity: 0.7; transform: scale(1.1); }
            100% { opacity: 0.3; transform: scale(0.8); }
            100% { opacity: 0.3; transform: scale(0.8); }
        }
        }
        
        
        @keyframes pulse-alert {
        @keyframes pulse-alert {
            0%, 100% { opacity: 0.8; transform: scale(1); }
            0%, 100% { opacity: 0.8; transform: scale(1); }
            50% { opacity: 1; transform: scale(1.2); }
            50% { opacity: 1; transform: scale(1.2); }
        }
        }
        
        
        @keyframes sound-ripple {
        @keyframes sound-ripple {
            0% { opacity: 0.2; transform: scale(0.9); }
            0% { opacity: 0.2; transform: scale(0.9); }
            50% { opacity: 0.6; transform: scale(1.3); }
            50% { opacity: 0.6; transform: scale(1.3); }
            100% { opacity: 0.2; transform: scale(0.9); }
            100% { opacity: 0.2; transform: scale(0.9); }
        }
        }
        
        
        svg:hover .notify-bell { 
        svg:hover .notify-bell { 
            animation-duration: 1s; 
            animation-duration: 1s; 
        }
        }
        svg:hover .notify-waves { 
        svg:hover .notify-waves { 
            animation-duration: 1s; 
            animation-duration: 1s; 
        }
        }
        svg:hover .notify-indicator { 
        svg:hover .notify-indicator { 
            animation-duration: 0.8s; 
            animation-duration: 0.8s; 
        }
        }
        
        
        @media (prefers-color-scheme: dark) {
        @media (prefers-color-scheme: dark) {
            .notify-bell { opacity: 0.95; }
            .notify-bell { opacity: 0.95; }
            .notify-waves { opacity: 0.8; }
            .notify-waves { opacity: 0.8; }
            .notify-indicator { opacity: 0.9; }
            .notify-indicator { opacity: 0.9; }
            .notify-sound { opacity: 0.7; }
            .notify-sound { opacity: 0.7; }
        }
        }
        
        
        @media (prefers-reduced-motion: reduce) {
        @media (prefers-reduced-motion: reduce) {
            .notify-bell, .notify-waves, .notify-indicator, .notify-sound { animation: none; }
            .notify-bell, .notify-waves, .notify-indicator, .notify-sound { animation: none; }
        }
        }
    </style>
    </style>
    
    
    <!-- Bell body -->
    <!-- Bell body -->
    <path class="notify-bell" 
    <path class="notify-bell" 
          stroke-linecap="round" 
          stroke-linecap="round" 
          stroke-linejoin="round" 
          stroke-linejoin="round" 
          d="M15 17h5l-1.405-1.405A2.032 2.032 0 0118 14.158V11a6.002 6.002 0 00-4-5.659V5a2 2 0 10-4 0v.341C7.67 6.165 6 8.388 6 11v3.159c0 .538-.214 1.055-.595 1.436L4 17h5m6 0v1a3 3 0 11-6 0v-1m6 0H9" />
          d="M15 17h5l-1.405-1.405A2.032 2.032 0 0118 14.158V11a6.002 6.002 0 00-4-5.659V5a2 2 0 10-4 0v.341C7.67 6.165 6 8.388 6 11v3.159c0 .538-.214 1.055-.595 1.436L4 17h5m6 0v1a3 3 0 11-6 0v-1m6 0H9" />
    
    
    <!-- Notification indicator -->
    <!-- Notification indicator -->
    <circle class="notify-indicator" cx="18" cy="6" r="3" fill="currentColor" opacity="0.8" />
    <circle class="notify-indicator" cx="18" cy="6" r="3" fill="currentColor" opacity="0.8" />
    
    
    <!-- Sound waves -->
    <!-- Sound waves -->
    <g class="notify-sound">
    <g class="notify-sound">
        <path stroke-linecap="round" stroke-linejoin="round" 
        <path stroke-linecap="round" stroke-linejoin="round" 
              d="M19 11c0-1.5-1-3-2.5-3" stroke-width="1" opacity="0.5" />
              d="M19 11c0-1.5-1-3-2.5-3" stroke-width="1" opacity="0.5" />
        <path stroke-linecap="round" stroke-linejoin="round" 
        <path stroke-linecap="round" stroke-linejoin="round" 
              d="M21 9c0-2.5-2-5-4.5-5" stroke-width="1" opacity="0.3" />
              d="M21 9c0-2.5-2-5-4.5-5" stroke-width="1" opacity="0.3" />
    </g>
    </g>
    
    
    <!-- Notification waves -->
    <!-- Notification waves -->
    <g class="notify-waves">
    <g class="notify-waves">
        <circle cx="12" cy="12" r="8" stroke-width="0.5" opacity="0.3" stroke-dasharray="3 6" />
        <circle cx="12" cy="12" r="8" stroke-width="0.5" opacity="0.3" stroke-dasharray="3 6" />
        <circle cx="12" cy="12" r="12" stroke-width="0.5" opacity="0.2" stroke-dasharray="4 8" />
        <circle cx="12" cy="12" r="12" stroke-width="0.5" opacity="0.2" stroke-dasharray="4 8" />
    </g>
    </g>
</svg>
<?xml version="1.0" encoding="UTF-8"?>
<svg xmlns="http://www.w3.org/2000/svg" 
     fill="none" 
     viewBox="0 0 24 24" 
     stroke="currentColor"
     stroke-width="1.5"
     aria-hidden="true" 
     role="img"
     aria-label="Notification System Logo">
    <style>
        .notify-bell { 
            animation: bell-ring 4s ease-in-out infinite;
            transform-origin: 12px 4px;
        }
        .notify-waves { 
            animation: notification-wave 2s ease-in-out infinite;
        }
        .notify-indicator { 
            animation: pulse-alert 1.5s ease-in-out infinite;
            transform-origin: 18px 6px;
        }
        .notify-sound { 
            animation: sound-ripple 3s ease-in-out infinite;
        }
        
        @keyframes bell-ring {
            0%, 90%, 100% { transform: rotate(0deg); }
            5% { transform: rotate(5deg); }
            10% { transform: rotate(-5deg); }
            15% { transform: rotate(3deg); }
            20% { transform: rotate(-3deg); }
            25% { transform: rotate(0deg); }
        }
        
        @keyframes notification-wave {
            0% { opacity: 0.3; transform: scale(0.8); }
            50% { opacity: 0.7; transform: scale(1.1); }
            100% { opacity: 0.3; transform: scale(0.8); }
        }
        
        @keyframes pulse-alert {
            0%, 100% { opacity: 0.8; transform: scale(1); }
            50% { opacity: 1; transform: scale(1.2); }
        }
        
        @keyframes sound-ripple {
            0% { opacity: 0.2; transform: scale(0.9); }
            50% { opacity: 0.6; transform: scale(1.3); }
            100% { opacity: 0.2; transform: scale(0.9); }
        }
        
        svg:hover .notify-bell { 
            animation-duration: 1s; 
        }
        svg:hover .notify-waves { 
            animation-duration: 1s; 
        }
        svg:hover .notify-indicator { 
            animation-duration: 0.8s; 
        }
        
        @media (prefers-color-scheme: dark) {
            .notify-bell { opacity: 0.95; }
            .notify-waves { opacity: 0.8; }
            .notify-indicator { opacity: 0.9; }
            .notify-sound { opacity: 0.7; }
        }
        
        @media (prefers-reduced-motion: reduce) {
            .notify-bell, .notify-waves, .notify-indicator, .notify-sound { animation: none; }
        }
    </style>
    
    <!-- Bell body -->
    <path class="notify-bell" 
          stroke-linecap="round" 
          stroke-linejoin="round" 
          d="M15 17h5l-1.405-1.405A2.032 2.032 0 0118 14.158V11a6.002 6.002 0 00-4-5.659V5a2 2 0 10-4 0v.341C7.67 6.165 6 8.388 6 11v3.159c0 .538-.214 1.055-.595 1.436L4 17h5m6 0v1a3 3 0 11-6 0v-1m6 0H9" />
    
    <!-- Notification indicator -->
    <circle class="notify-indicator" cx="18" cy="6" r="3" fill="currentColor" opacity="0.8" />
    
    <!-- Sound waves -->
    <g class="notify-sound">
        <path stroke-linecap="round" stroke-linejoin="round" 
              d="M19 11c0-1.5-1-3-2.5-3" stroke-width="1" opacity="0.5" />
        <path stroke-linecap="round" stroke-linejoin="round" 
              d="M21 9c0-2.5-2-5-4.5-5" stroke-width="1" opacity="0.3" />
    </g>
    
    <!-- Notification waves -->
    <g class="notify-waves">
        <circle cx="12" cy="12" r="8" stroke-width="0.5" opacity="0.3" stroke-dasharray="3 6" />
        <circle cx="12" cy="12" r="12" stroke-width="0.5" opacity="0.2" stroke-dasharray="4 8" />
    </g>
<svg xmlns="http://www.w3.org/2000/svg" viewBox="0 0 24 24" fill="currentColor">
  <path d="M12 2C6.48 2 2 6.48 2 12s4.48 10 10 10 10-4.48 10-10S17.52 2 12 2zm-2 15l-5-5 1.41-1.41L10 14.17l7.59-7.59L19 8l-9 9z"/>
<?xml version="1.0" encoding="UTF-8"?>
<?xml version="1.0" encoding="UTF-8"?>
<svg xmlns="http://www.w3.org/2000/svg" 
<svg xmlns="http://www.w3.org/2000/svg" 
     fill="none" 
     fill="none" 
     viewBox="0 0 24 24" 
     viewBox="0 0 24 24" 
     stroke="currentColor"
     stroke="currentColor"
     stroke-width="1.5"
     stroke-width="1.5"
     aria-hidden="true" 
     aria-hidden="true" 
     role="img"
     role="img"
     aria-label="Notification System Logo">
     aria-label="Notification System Logo">
    <style>
    <style>
        .notify-bell { 
        .notify-bell { 
            animation: bell-ring 4s ease-in-out infinite;
            animation: bell-ring 4s ease-in-out infinite;
            transform-origin: 12px 4px;
            transform-origin: 12px 4px;
        }
        }
        .notify-waves { 
        .notify-waves { 
            animation: notification-wave 2s ease-in-out infinite;
            animation: notification-wave 2s ease-in-out infinite;
        }
        }
        .notify-indicator { 
        .notify-indicator { 
            animation: pulse-alert 1.5s ease-in-out infinite;
            animation: pulse-alert 1.5s ease-in-out infinite;
            transform-origin: 18px 6px;
            transform-origin: 18px 6px;
        }
        }
        .notify-sound { 
        .notify-sound { 
            animation: sound-ripple 3s ease-in-out infinite;
            animation: sound-ripple 3s ease-in-out infinite;
        }
        }
        
        
        @keyframes bell-ring {
        @keyframes bell-ring {
            0%, 90%, 100% { transform: rotate(0deg); }
            0%, 90%, 100% { transform: rotate(0deg); }
            5% { transform: rotate(5deg); }
            5% { transform: rotate(5deg); }
            10% { transform: rotate(-5deg); }
            10% { transform: rotate(-5deg); }
            15% { transform: rotate(3deg); }
            15% { transform: rotate(3deg); }
            20% { transform: rotate(-3deg); }
            20% { transform: rotate(-3deg); }
            25% { transform: rotate(0deg); }
            25% { transform: rotate(0deg); }
        }
        }
        
        
        @keyframes notification-wave {
        @keyframes notification-wave {
            0% { opacity: 0.3; transform: scale(0.8); }
            0% { opacity: 0.3; transform: scale(0.8); }
            50% { opacity: 0.7; transform: scale(1.1); }
            50% { opacity: 0.7; transform: scale(1.1); }
            100% { opacity: 0.3; transform: scale(0.8); }
            100% { opacity: 0.3; transform: scale(0.8); }
        }
        }
        
        
        @keyframes pulse-alert {
        @keyframes pulse-alert {
            0%, 100% { opacity: 0.8; transform: scale(1); }
            0%, 100% { opacity: 0.8; transform: scale(1); }
            50% { opacity: 1; transform: scale(1.2); }
            50% { opacity: 1; transform: scale(1.2); }
        }
        }
        
        
        @keyframes sound-ripple {
        @keyframes sound-ripple {
            0% { opacity: 0.2; transform: scale(0.9); }
            0% { opacity: 0.2; transform: scale(0.9); }
            50% { opacity: 0.6; transform: scale(1.3); }
            50% { opacity: 0.6; transform: scale(1.3); }
            100% { opacity: 0.2; transform: scale(0.9); }
            100% { opacity: 0.2; transform: scale(0.9); }
        }
        }
        
        
        svg:hover .notify-bell { 
        svg:hover .notify-bell { 
            animation-duration: 1s; 
            animation-duration: 1s; 
        }
        }
        svg:hover .notify-waves { 
        svg:hover .notify-waves { 
            animation-duration: 1s; 
            animation-duration: 1s; 
        }
        }
        svg:hover .notify-indicator { 
        svg:hover .notify-indicator { 
            animation-duration: 0.8s; 
            animation-duration: 0.8s; 
        }
        }
        
        
        @media (prefers-color-scheme: dark) {
        @media (prefers-color-scheme: dark) {
            .notify-bell { opacity: 0.95; }
            .notify-bell { opacity: 0.95; }
            .notify-waves { opacity: 0.8; }
            .notify-waves { opacity: 0.8; }
            .notify-indicator { opacity: 0.9; }
            .notify-indicator { opacity: 0.9; }
            .notify-sound { opacity: 0.7; }
            .notify-sound { opacity: 0.7; }
        }
        }
        
        
        @media (prefers-reduced-motion: reduce) {
        @media (prefers-reduced-motion: reduce) {
            .notify-bell, .notify-waves, .notify-indicator, .notify-sound { animation: none; }
            .notify-bell, .notify-waves, .notify-indicator, .notify-sound { animation: none; }
        }
        }
    </style>
    </style>
    
    
    <!-- Bell body -->
    <!-- Bell body -->
    <path class="notify-bell" 
    <path class="notify-bell" 
          stroke-linecap="round" 
          stroke-linecap="round" 
          stroke-linejoin="round" 
          stroke-linejoin="round" 
          d="M15 17h5l-1.405-1.405A2.032 2.032 0 0118 14.158V11a6.002 6.002 0 00-4-5.659V5a2 2 0 10-4 0v.341C7.67 6.165 6 8.388 6 11v3.159c0 .538-.214 1.055-.595 1.436L4 17h5m6 0v1a3 3 0 11-6 0v-1m6 0H9" />
          d="M15 17h5l-1.405-1.405A2.032 2.032 0 0118 14.158V11a6.002 6.002 0 00-4-5.659V5a2 2 0 10-4 0v.341C7.67 6.165 6 8.388 6 11v3.159c0 .538-.214 1.055-.595 1.436L4 17h5m6 0v1a3 3 0 11-6 0v-1m6 0H9" />
    
    
    <!-- Notification indicator -->
    <!-- Notification indicator -->
    <circle class="notify-indicator" cx="18" cy="6" r="3" fill="currentColor" opacity="0.8" />
    <circle class="notify-indicator" cx="18" cy="6" r="3" fill="currentColor" opacity="0.8" />
    
    
    <!-- Sound waves -->
    <!-- Sound waves -->
    <g class="notify-sound">
    <g class="notify-sound">
        <path stroke-linecap="round" stroke-linejoin="round" 
        <path stroke-linecap="round" stroke-linejoin="round" 
              d="M19 11c0-1.5-1-3-2.5-3" stroke-width="1" opacity="0.5" />
              d="M19 11c0-1.5-1-3-2.5-3" stroke-width="1" opacity="0.5" />
        <path stroke-linecap="round" stroke-linejoin="round" 
        <path stroke-linecap="round" stroke-linejoin="round" 
              d="M21 9c0-2.5-2-5-4.5-5" stroke-width="1" opacity="0.3" />
              d="M21 9c0-2.5-2-5-4.5-5" stroke-width="1" opacity="0.3" />
    </g>
    </g>
    
    
    <!-- Notification waves -->
    <!-- Notification waves -->
    <g class="notify-waves">
    <g class="notify-waves">
        <circle cx="12" cy="12" r="8" stroke-width="0.5" opacity="0.3" stroke-dasharray="3 6" />
        <circle cx="12" cy="12" r="8" stroke-width="0.5" opacity="0.3" stroke-dasharray="3 6" />
        <circle cx="12" cy="12" r="12" stroke-width="0.5" opacity="0.2" stroke-dasharray="4 8" />
        <circle cx="12" cy="12" r="12" stroke-width="0.5" opacity="0.2" stroke-dasharray="4 8" />
    </g>
    </g>
<svg xmlns="http://www.w3.org/2000/svg" viewBox="0 0 24 24" fill="currentColor">
<svg xmlns="http://www.w3.org/2000/svg" viewBox="0 0 24 24" fill="currentColor">
  <path d="M12 2C6.48 2 2 6.48 2 12s4.48 10 10 10 10-4.48 10-10S17.52 2 12 2zm-2 15l-5-5 1.41-1.41L10 14.17l7.59-7.59L19 8l-9 9z"/>
  <path d="M12 2C6.48 2 2 6.48 2 12s4.48 10 10 10 10-4.48 10-10S17.52 2 12 2zm-2 15l-5-5 1.41-1.41L10 14.17l7.59-7.59L19 8l-9 9z"/>
</svg>
<?xml version="1.0" encoding="UTF-8"?>
<svg xmlns="http://www.w3.org/2000/svg" 
     fill="none" 
     viewBox="0 0 24 24" 
     stroke="currentColor"
     stroke-width="1.5"
     aria-hidden="true" 
     role="img"
     aria-label="Notification System Logo">
    <style>
        .notify-bell { 
            animation: bell-ring 4s ease-in-out infinite;
            transform-origin: 12px 4px;
        }
        .notify-waves { 
            animation: notification-wave 2s ease-in-out infinite;
        }
        .notify-indicator { 
            animation: pulse-alert 1.5s ease-in-out infinite;
            transform-origin: 18px 6px;
        }
        .notify-sound { 
            animation: sound-ripple 3s ease-in-out infinite;
        }
        
        @keyframes bell-ring {
            0%, 90%, 100% { transform: rotate(0deg); }
            5% { transform: rotate(5deg); }
            10% { transform: rotate(-5deg); }
            15% { transform: rotate(3deg); }
            20% { transform: rotate(-3deg); }
            25% { transform: rotate(0deg); }
        }
        
        @keyframes notification-wave {
            0% { opacity: 0.3; transform: scale(0.8); }
            50% { opacity: 0.7; transform: scale(1.1); }
            100% { opacity: 0.3; transform: scale(0.8); }
        }
        
        @keyframes pulse-alert {
            0%, 100% { opacity: 0.8; transform: scale(1); }
            50% { opacity: 1; transform: scale(1.2); }
        }
        
        @keyframes sound-ripple {
            0% { opacity: 0.2; transform: scale(0.9); }
            50% { opacity: 0.6; transform: scale(1.3); }
            100% { opacity: 0.2; transform: scale(0.9); }
        }
        
        svg:hover .notify-bell { 
            animation-duration: 1s; 
        }
        svg:hover .notify-waves { 
            animation-duration: 1s; 
        }
        svg:hover .notify-indicator { 
            animation-duration: 0.8s; 
        }
        
        @media (prefers-color-scheme: dark) {
            .notify-bell { opacity: 0.95; }
            .notify-waves { opacity: 0.8; }
            .notify-indicator { opacity: 0.9; }
            .notify-sound { opacity: 0.7; }
        }
        
        @media (prefers-reduced-motion: reduce) {
            .notify-bell, .notify-waves, .notify-indicator, .notify-sound { animation: none; }
        }
    </style>
    
    <!-- Bell body -->
    <path class="notify-bell" 
          stroke-linecap="round" 
          stroke-linejoin="round" 
          d="M15 17h5l-1.405-1.405A2.032 2.032 0 0118 14.158V11a6.002 6.002 0 00-4-5.659V5a2 2 0 10-4 0v.341C7.67 6.165 6 8.388 6 11v3.159c0 .538-.214 1.055-.595 1.436L4 17h5m6 0v1a3 3 0 11-6 0v-1m6 0H9" />
    
    <!-- Notification indicator -->
    <circle class="notify-indicator" cx="18" cy="6" r="3" fill="currentColor" opacity="0.8" />
    
    <!-- Sound waves -->
    <g class="notify-sound">
        <path stroke-linecap="round" stroke-linejoin="round" 
              d="M19 11c0-1.5-1-3-2.5-3" stroke-width="1" opacity="0.5" />
        <path stroke-linecap="round" stroke-linejoin="round" 
              d="M21 9c0-2.5-2-5-4.5-5" stroke-width="1" opacity="0.3" />
    </g>
    
    <!-- Notification waves -->
    <g class="notify-waves">
        <circle cx="12" cy="12" r="8" stroke-width="0.5" opacity="0.3" stroke-dasharray="3 6" />
        <circle cx="12" cy="12" r="12" stroke-width="0.5" opacity="0.2" stroke-dasharray="4 8" />
    </g>
<svg xmlns="http://www.w3.org/2000/svg" viewBox="0 0 24 24" fill="currentColor">
<svg xmlns="http://www.w3.org/2000/svg" viewBox="0 0 24 24" fill="currentColor">
  <path d="M12 2C6.48 2 2 6.48 2 12s4.48 10 10 10 10-4.48 10-10S17.52 2 12 2zm-2 15l-5-5 1.41-1.41L10 14.17l7.59-7.59L19 8l-9 9z"/>
  <path d="M12 2C6.48 2 2 6.48 2 12s4.48 10 10 10 10-4.48 10-10S17.52 2 12 2zm-2 15l-5-5 1.41-1.41L10 14.17l7.59-7.59L19 8l-9 9z"/>
</svg>
<svg xmlns="http://www.w3.org/2000/svg" viewBox="0 0 24 24" fill="currentColor">
<svg xmlns="http://www.w3.org/2000/svg" viewBox="0 0 24 24" fill="currentColor">
  <path d="M12 2C6.48 2 2 6.48 2 12s4.48 10 10 10 10-4.48 10-10S17.52 2 12 2zm-2 15l-5-5 1.41-1.41L10 14.17l7.59-7.59L19 8l-9 9z"/>
  <path d="M12 2C6.48 2 2 6.48 2 12s4.48 10 10 10 10-4.48 10-10S17.52 2 12 2zm-2 15l-5-5 1.41-1.41L10 14.17l7.59-7.59L19 8l-9 9z"/>
<svg xmlns="http://www.w3.org/2000/svg" viewBox="0 0 24 24" fill="currentColor">
<svg xmlns="http://www.w3.org/2000/svg" viewBox="0 0 24 24" fill="currentColor">
  <path d="M12 2C6.48 2 2 6.48 2 12s4.48 10 10 10 10-4.48 10-10S17.52 2 12 2zm-2 15l-5-5 1.41-1.41L10 14.17l7.59-7.59L19 8l-9 9z"/>
  <path d="M12 2C6.48 2 2 6.48 2 12s4.48 10 10 10 10-4.48 10-10S17.52 2 12 2zm-2 15l-5-5 1.41-1.41L10 14.17l7.59-7.59L19 8l-9 9z"/>
</svg>
<svg xmlns="http://www.w3.org/2000/svg" viewBox="0 0 24 24" fill="currentColor">
<svg xmlns="http://www.w3.org/2000/svg" viewBox="0 0 24 24" fill="currentColor">
  <path d="M12 2C6.48 2 2 6.48 2 12s4.48 10 10 10 10-4.48 10-10S17.52 2 12 2zm-2 15l-5-5 1.41-1.41L10 14.17l7.59-7.59L19 8l-9 9z"/>
  <path d="M12 2C6.48 2 2 6.48 2 12s4.48 10 10 10 10-4.48 10-10S17.52 2 12 2zm-2 15l-5-5 1.41-1.41L10 14.17l7.59-7.59L19 8l-9 9z"/>
<svg xmlns="http://www.w3.org/2000/svg" viewBox="0 0 24 24" fill="currentColor">
  <path d="M12 2C6.48 2 2 6.48 2 12s4.48 10 10 10 10-4.48 10-10S17.52 2 12 2zm-2 15l-5-5 1.41-1.41L10 14.17l7.59-7.59L19 8l-9 9z"/>
<svg xmlns="http://www.w3.org/2000/svg" viewBox="0 0 24 24" fill="currentColor">
<svg xmlns="http://www.w3.org/2000/svg" viewBox="0 0 24 24" fill="currentColor">
  <path d="M12 2C6.48 2 2 6.48 2 12s4.48 10 10 10 10-4.48 10-10S17.52 2 12 2zm-2 15l-5-5 1.41-1.41L10 14.17l7.59-7.59L19 8l-9 9z"/>
  <path d="M12 2C6.48 2 2 6.48 2 12s4.48 10 10 10 10-4.48 10-10S17.52 2 12 2zm-2 15l-5-5 1.41-1.41L10 14.17l7.59-7.59L19 8l-9 9z"/>
<svg xmlns="http://www.w3.org/2000/svg" viewBox="0 0 24 24" fill="currentColor">
<svg xmlns="http://www.w3.org/2000/svg" viewBox="0 0 24 24" fill="currentColor">
  <path d="M12 2C6.48 2 2 6.48 2 12s4.48 10 10 10 10-4.48 10-10S17.52 2 12 2zm-2 15l-5-5 1.41-1.41L10 14.17l7.59-7.59L19 8l-9 9z"/>
  <path d="M12 2C6.48 2 2 6.48 2 12s4.48 10 10 10 10-4.48 10-10S17.52 2 12 2zm-2 15l-5-5 1.41-1.41L10 14.17l7.59-7.59L19 8l-9 9z"/>
</svg>
</svg>
</svg>
<svg xmlns="http://www.w3.org/2000/svg" viewBox="0 0 24 24" fill="currentColor">
<svg xmlns="http://www.w3.org/2000/svg" viewBox="0 0 24 24" fill="currentColor">
  <path d="M12 2C6.48 2 2 6.48 2 12s4.48 10 10 10 10-4.48 10-10S17.52 2 12 2zm-2 15l-5-5 1.41-1.41L10 14.17l7.59-7.59L19 8l-9 9z"/>
  <path d="M12 2C6.48 2 2 6.48 2 12s4.48 10 10 10 10-4.48 10-10S17.52 2 12 2zm-2 15l-5-5 1.41-1.41L10 14.17l7.59-7.59L19 8l-9 9z"/>
<svg xmlns="http://www.w3.org/2000/svg" viewBox="0 0 24 24" fill="currentColor">
  <path d="M12 2C6.48 2 2 6.48 2 12s4.48 10 10 10 10-4.48 10-10S17.52 2 12 2zm-2 15l-5-5 1.41-1.41L10 14.17l7.59-7.59L19 8l-9 9z"/>
</svg>
<svg xmlns="http://www.w3.org/2000/svg" viewBox="0 0 24 24" fill="currentColor">
<svg xmlns="http://www.w3.org/2000/svg" viewBox="0 0 24 24" fill="currentColor">
  <path d="M12 2C6.48 2 2 6.48 2 12s4.48 10 10 10 10-4.48 10-10S17.52 2 12 2zm-2 15l-5-5 1.41-1.41L10 14.17l7.59-7.59L19 8l-9 9z"/>
  <path d="M12 2C6.48 2 2 6.48 2 12s4.48 10 10 10 10-4.48 10-10S17.52 2 12 2zm-2 15l-5-5 1.41-1.41L10 14.17l7.59-7.59L19 8l-9 9z"/>
</svg>
</svg>
<svg xmlns="http://www.w3.org/2000/svg" viewBox="0 0 24 24" fill="currentColor">
<svg xmlns="http://www.w3.org/2000/svg" viewBox="0 0 24 24" fill="currentColor">
  <path d="M12 2C6.48 2 2 6.48 2 12s4.48 10 10 10 10-4.48 10-10S17.52 2 12 2zm-2 15l-5-5 1.41-1.41L10 14.17l7.59-7.59L19 8l-9 9z"/>
  <path d="M12 2C6.48 2 2 6.48 2 12s4.48 10 10 10 10-4.48 10-10S17.52 2 12 2zm-2 15l-5-5 1.41-1.41L10 14.17l7.59-7.59L19 8l-9 9z"/>
</svg>
</svg>
</svg>
</svg>
<svg xmlns="http://www.w3.org/2000/svg" viewBox="0 0 24 24" fill="currentColor">
<svg xmlns="http://www.w3.org/2000/svg" viewBox="0 0 24 24" fill="currentColor">
  <path d="M12 2C6.48 2 2 6.48 2 12s4.48 10 10 10 10-4.48 10-10S17.52 2 12 2zm-2 15l-5-5 1.41-1.41L10 14.17l7.59-7.59L19 8l-9 9z"/>
  <path d="M12 2C6.48 2 2 6.48 2 12s4.48 10 10 10 10-4.48 10-10S17.52 2 12 2zm-2 15l-5-5 1.41-1.41L10 14.17l7.59-7.59L19 8l-9 9z"/>
</svg>
</svg>
</svg>
</svg>
<svg xmlns="http://www.w3.org/2000/svg" viewBox="0 0 24 24" fill="currentColor">
<svg xmlns="http://www.w3.org/2000/svg" viewBox="0 0 24 24" fill="currentColor">
  <path d="M12 2C6.48 2 2 6.48 2 12s4.48 10 10 10 10-4.48 10-10S17.52 2 12 2zm-2 15l-5-5 1.41-1.41L10 14.17l7.59-7.59L19 8l-9 9z"/>
  <path d="M12 2C6.48 2 2 6.48 2 12s4.48 10 10 10 10-4.48 10-10S17.52 2 12 2zm-2 15l-5-5 1.41-1.41L10 14.17l7.59-7.59L19 8l-9 9z"/>
</svg>
</svg>
</svg>
</svg>
<svg xmlns="http://www.w3.org/2000/svg" viewBox="0 0 24 24" fill="currentColor">
<svg xmlns="http://www.w3.org/2000/svg" viewBox="0 0 24 24" fill="currentColor">
  <path d="M12 2C6.48 2 2 6.48 2 12s4.48 10 10 10 10-4.48 10-10S17.52 2 12 2zm-2 15l-5-5 1.41-1.41L10 14.17l7.59-7.59L19 8l-9 9z"/>
  <path d="M12 2C6.48 2 2 6.48 2 12s4.48 10 10 10 10-4.48 10-10S17.52 2 12 2zm-2 15l-5-5 1.41-1.41L10 14.17l7.59-7.59L19 8l-9 9z"/>
</svg>
</svg>
</svg>
</svg>
